<?xml version="1.0" encoding="utf-8"?>
<!-- Svg Vector Icons : http://www.onlinewebfonts.com/icon -->
<!DOCTYPE svg PUBLIC "-//W3C//DTD SVG 1.1//EN" "http://www.w3.org/Graphics/SVG/1.1/DTD/svg11.dtd">
<svg version="1.1" xmlns="http://www.w3.org/2000/svg" xmlns:xlink="http://www.w3.org/1999/xlink" x="0px" y="0px" viewBox="0 0 1000 1000" enable-background="new 0 0 1000 1000" xml:space="preserve">
<metadata> Svg Vector Icons : http://www.onlinewebfonts.com/icon </metadata>
<g><g transform="translate(0.000000,512.000000) scale(0.100000,-0.100000)"><path d="M4530.1,5007.9C3377.4,4889,2339.7,4398,1530.4,3588.6C753.6,2811.8,285.6,1858.6,124.4,723.1c-32.6-226.3-32.6-982,0-1208.3c163-1137.4,629.1-2086.8,1405.9-2865.5c778.7-776.8,1728.1-1242.9,2865.5-1405.9c226.3-32.6,982-32.6,1208.3,0c790.2,113.2,1461.5,360.6,2100.2,778.7c521.7,341.4,1051.1,870.8,1392.5,1392.5c418.1,640.6,665.5,1310,778.7,2100.2c32.6,226.3,32.6,982,0,1208.3c-163,1137.4-629.1,2086.8-1405.9,2865.5c-759.5,759.5-1687.8,1223.7-2779.2,1392.5C5448.8,5017.5,4775.6,5034.8,4530.1,5007.9z M5642.5,4676.1C6638,4528.5,7552.8,4070,8252.9,3368.1c725-728.8,1170-1636,1313.8-2673.7c15.4-101.7,26.9-354.8,26.9-575.4c0-414.3-21.1-613.8-97.8-978.2c-107.4-506.4-368.3-1122-656-1553.6c-749.9-1123.9-1912.2-1849-3264.4-2035c-235.9-34.5-914.9-34.5-1150.8,0c-725,99.7-1390.5,349.1-1975.5,740.4C1344.3-2969,619.3-1800.9,431.3-456.4c-32.6,237.8-32.6,934.1,1.9,1160.4c220.6,1509.5,1076,2752.3,2380.2,3462c558.1,303,1083.7,458.4,1841.3,544.7C4794.8,4726,5458.4,4703,5642.5,4676.1z"/><path d="M2412.6,694.4c-153.4-32.6-212.9-122.7-212.9-326.1c0-253.2,53.7-295.4,435.4-333.7c161.1-17.2,245.5-34.5,257-51.8c28.8-44.1,21.1-203.3-11.5-235.9c-63.3-61.4-377.9-61.4-441.1,0c-15.3,17.3-28.8,59.5-28.8,95.9V-92h-105.5h-105.5v-86.3c0-130.4,42.2-216.7,128.5-255.1c57.5-25,128.5-32.6,331.8-32.6c400.9,1.9,466.1,49.9,468,345.2c1.9,257-55.6,305-416.2,337.6c-117,11.5-228.3,28.8-247.4,38.4c-26.8,15.3-34.5,42.2-34.5,122.7c0,126.6,24.9,145.8,211,157.3c149.6,9.6,212.9-17.3,237.8-105.5c17.2-59.5,21.1-61.4,118.9-61.4h103.6v67.1c0,113.2-48,199.5-128.5,234C2886.4,705.9,2541.1,721.2,2412.6,694.4z"/><path d="M3528.9,694.4c-44.1-9.6-107.4-30.7-140-48c-124.7-63.3-170.7-295.4-136.2-679c34.5-389.3,88.2-433.5,500.6-433.5c379.8,1.9,446.9,42.2,473.7,297.3l11.5,115.1h-118.9h-117v-74.8c0-128.5-78.6-166.9-320.3-151.5c-159.2,9.6-189.9,42.2-209.1,218.6c-13.4,136.2-1.9,456.5,21.1,510.2c19.2,47.9,113.2,72.9,266.6,72.9c168.8,0,216.7-28.8,234-136.2l13.4-74.8H4112h105.5l-7.7,115.1c-9.6,128.5-51.8,203.3-141.9,247.4C4002.6,705.9,3649.7,719.3,3528.9,694.4z"/><path d="M4367.1,119v-575.4h115.1h115.1v191.8v191.8h189.9c172.6,0,197.5-3.8,243.6-44.1c46-40.3,51.8-61.4,61.4-191.8l9.6-147.7h101.7h103.6v163c0,193.7-28.8,264.7-118.9,297.3L5124.7,25l61.4,26.9c101.7,44.1,130.4,109.3,130.4,297.3c-1.9,316.5-51.8,345.2-585,345.2h-364.4V119z M5061.4,487.2c15.3-15.3,24.9-76.7,24.9-168.8c0-191.8-9.6-199.5-281.9-199.5h-207.1v203.3v203.3l220.6-5.8C4963.6,514.1,5044.1,504.5,5061.4,487.2z"/><path d="M5498.7,119v-575.4h105.5h105.5V119v575.4h-105.5h-105.5V119z"/><path d="M5920.6,119v-575.4h115.1h115.1v180.3v178.4l245.5,9.6c397,15.3,452.7,61.4,452.7,389.3c1.9,134.3-7.7,189.9-36.4,249.3c-65.2,130.4-115.1,143.9-531.3,143.9h-360.6V119z M6549.7,500.7c47.9-15.3,63.3-34.5,72.9-86.3c17.3-90.1,0-253.2-28.8-281.9c-13.4-13.4-103.6-25-232.1-28.8l-211-7.7v212.9v212.9h170.7C6413.6,521.8,6517.1,512.2,6549.7,500.7z"/><path d="M6898.8,598.5v-95.9h172.6h172.6V23.1v-479.5h105.5H7455V23.1v479.5h182.2h182.2v95.9v95.9h-460.3h-460.3V598.5z"/><path d="M1610.9,391.3l-370.2-186v-76.7V51.9l374-188c205.2-101.7,377.9-186.1,383.6-186.1s9.6,42.2,9.6,92.1v94L1737.5-7.6c-147.7,69.1-264.7,134.3-258.9,141.9c3.8,7.7,126.6,69,268.5,136.2l260.8,122.8v92.1c0,51.8-5.8,94-13.4,92.1C1984.9,577.4,1812.3,493,1610.9,391.3z"/><path d="M7992.1,487.2v-94l260.8-120.8c141.9-67.1,262.8-128.5,268.5-138.1c5.8-7.7-111.2-72.9-258.9-141.9l-270.4-128.5v-94c0-49.9,3.8-92.1,9.6-92.1s178.4,84.4,383.6,186.1l374,188v76.7v76.7l-374,188c-205.2,101.7-377.8,186-383.6,186S7992.1,537.1,7992.1,487.2z"/></g></g>
</svg>